<svg xmlns="http://www.w3.org/2000/svg" viewBox="-50,-50,100,100" id="canvas"><g class="tlg" transform="translate(-44.968596335784085,-6.5328124075251655) scale(0.7578582832551993)"><g><g><path id="GE" name="GE" label="Genf" transform="translate(0, 0)" d="m0,-4.666666666666667l4.041451884327381,2.333333333333333l0,4.666666666666666l-4.04145188432738,2.3333333333333344l-4.041451884327381,-2.3333333333333313l-2.6645352591003757e-15,-4.666666666666666z" fill="#fff266"/><text dx="-.1em" text-anchor="middle" class="hex-id" transform="translate(0, 0)" font-size="2.6px" font-weight="bold" fill="#555">GE</text></g><g><path id="NE" name="NE" label="Neuenburg" transform="translate(4.3301270189221945, -7.5)" d="m0,-4.666666666666667l4.041451884327381,2.333333333333333l0,4.666666666666666l-4.04145188432738,2.3333333333333344l-4.041451884327381,-2.3333333333333313l-2.6645352591003757e-15,-4.666666666666666z" fill="#fff266"/><text dx="-.1em" text-anchor="middle" class="hex-id" transform="translate(4.3301270189221945, -7.5)" font-size="2.6px" font-weight="bold" fill="#555">NE</text></g><g><path id="JU" name="JU" label="Jura" transform="translate(8.660254037844386, -15)" d="m0,-4.666666666666667l4.041451884327381,2.333333333333333l0,4.666666666666666l-4.04145188432738,2.3333333333333344l-4.041451884327381,-2.3333333333333313l-2.6645352591003757e-15,-4.666666666666666z" fill="#fff266"/><text dx="-.1em" text-anchor="middle" class="hex-id" transform="translate(8.660254037844386, -15)" font-size="2.6px" font-weight="bold" fill="#555">JU</text></g><g><path id="BS" name="BS" label="Basel Stadt" transform="translate(12.99038105676658, -22.5)" d="m0,-4.666666666666667l4.041451884327381,2.333333333333333l0,4.666666666666666l-4.04145188432738,2.3333333333333344l-4.041451884327381,-2.3333333333333313l-2.6645352591003757e-15,-4.666666666666666z" fill="#fff266"/><text dx="-.1em" text-anchor="middle" class="hex-id" transform="translate(12.99038105676658, -22.5)" font-size="2.6px" font-weight="bold" fill="#555">BS</text></g><g><path id="VD" name="VD" label="Waadt" transform="translate(8.660254037844386, 0)" d="m0,-4.666666666666667l4.041451884327381,2.333333333333333l0,4.666666666666666l-4.04145188432738,2.3333333333333344l-4.041451884327381,-2.3333333333333313l-2.6645352591003757e-15,-4.666666666666666z" fill="#fff266"/><text dx="-.1em" text-anchor="middle" class="hex-id" transform="translate(8.660254037844386, 0)" font-size="2.6px" font-weight="bold" fill="#555">VD</text></g><g><path id="BE" name="BE" label="Bern" transform="translate(12.99038105676658, -7.5)" d="m0,-4.666666666666667l4.041451884327381,2.333333333333333l0,4.666666666666666l-4.04145188432738,2.3333333333333344l-4.041451884327381,-2.3333333333333313l-2.6645352591003757e-15,-4.666666666666666z" fill="#fff266"/><text dx="-.1em" text-anchor="middle" class="hex-id" transform="translate(12.99038105676658, -7.5)" font-size="2.6px" font-weight="bold" fill="#555">BE</text></g><g><path id="BL" name="BL" label="Basel Landschaft" transform="translate(21.650635094610966, -22.5)" d="m0,-4.666666666666667l4.041451884327381,2.333333333333333l0,4.666666666666666l-4.04145188432738,2.3333333333333344l-4.041451884327381,-2.3333333333333313l-2.6645352591003757e-15,-4.666666666666666z" fill="#fff266"/><text dx="-.1em" text-anchor="middle" class="hex-id" transform="translate(21.650635094610966, -22.5)" font-size="2.6px" font-weight="bold" fill="#555">BL</text></g><g><path id="VS" name="VS" label="Wallis" transform="translate(12.99038105676658, 7.5)" d="m0,-4.666666666666667l4.041451884327381,2.333333333333333l0,4.666666666666666l-4.04145188432738,2.3333333333333344l-4.041451884327381,-2.3333333333333313l-2.6645352591003757e-15,-4.666666666666666z" fill="#fff266"/><text dx="-.1em" text-anchor="middle" class="hex-id" transform="translate(12.99038105676658, 7.5)" font-size="2.6px" font-weight="bold" fill="#555">VS</text></g><g><path id="FR" name="FR" label="Freiburg" transform="translate(17.32050807568877, 0)" d="m0,-4.666666666666667l4.041451884327381,2.333333333333333l0,4.666666666666666l-4.04145188432738,2.3333333333333344l-4.041451884327381,-2.3333333333333313l-2.6645352591003757e-15,-4.666666666666666z" fill="#fff266"/><text dx="-.1em" text-anchor="middle" class="hex-id" transform="translate(17.32050807568877, 0)" font-size="2.6px" font-weight="bold" fill="#555">FR</text></g><g><path id="LU" name="LU" label="Luzern" transform="translate(21.650635094610966, -7.5)" d="m0,-4.666666666666667l4.041451884327381,2.333333333333333l0,4.666666666666666l-4.04145188432738,2.3333333333333344l-4.041451884327381,-2.3333333333333313l-2.6645352591003757e-15,-4.666666666666666z" fill="#fff266"/><text dx="-.1em" text-anchor="middle" class="hex-id" transform="translate(21.650635094610966, -7.5)" font-size="2.6px" font-weight="bold" fill="#555">LU</text></g><g><path id="AG" name="AG" label="Aargau" transform="translate(25.980762113533157, -15)" d="m0,-4.666666666666667l4.041451884327381,2.333333333333333l0,4.666666666666666l-4.04145188432738,2.3333333333333344l-4.041451884327381,-2.3333333333333313l-2.6645352591003757e-15,-4.666666666666666z" fill="#fff266"/><text dx="-.1em" text-anchor="middle" class="hex-id" transform="translate(25.980762113533157, -15)" font-size="2.6px" font-weight="bold" fill="#555">AG</text></g><g><path id="ZH" name="ZH" label="Zürich" transform="translate(30.31088913245535, -22.5)" d="m0,-4.666666666666667l4.041451884327381,2.333333333333333l0,4.666666666666666l-4.04145188432738,2.3333333333333344l-4.041451884327381,-2.3333333333333313l-2.6645352591003757e-15,-4.666666666666666z" fill="#fff266"/><text dx="-.1em" text-anchor="middle" class="hex-id" transform="translate(30.31088913245535, -22.5)" font-size="2.6px" font-weight="bold" fill="#555">ZH</text></g><g><path id="NW" name="NW" label="Nidwalden" transform="translate(25.980762113533157, 0)" d="m0,-4.666666666666667l4.041451884327381,2.333333333333333l0,4.666666666666666l-4.04145188432738,2.3333333333333344l-4.041451884327381,-2.3333333333333313l-2.6645352591003757e-15,-4.666666666666666z" fill="#fff266"/><text dx="-.1em" text-anchor="middle" class="hex-id" transform="translate(25.980762113533157, 0)" font-size="2.6px" font-weight="bold" fill="#555">NW</text></g><g><path id="OW" name="OW" label="Obwalden" transform="translate(21.650635094610966, 7.5)" d="m0,-4.666666666666667l4.041451884327381,2.333333333333333l0,4.666666666666666l-4.04145188432738,2.3333333333333344l-4.041451884327381,-2.3333333333333313l-2.6645352591003757e-15,-4.666666666666666z" fill="#fff266"/><text dx="-.1em" text-anchor="middle" class="hex-id" transform="translate(21.650635094610966, 7.5)" font-size="2.6px" font-weight="bold" fill="#555">OW</text></g><g><path id="SZ" name="SZ" label="Schwyz" transform="translate(30.31088913245535, -7.5)" d="m0,-4.666666666666667l4.041451884327381,2.333333333333333l0,4.666666666666666l-4.04145188432738,2.3333333333333344l-4.041451884327381,-2.3333333333333313l-2.6645352591003757e-15,-4.666666666666666z" fill="#fff266"/><text dx="-.1em" text-anchor="middle" class="hex-id" transform="translate(30.31088913245535, -7.5)" font-size="2.6px" font-weight="bold" fill="#555">SZ</text></g><g><path id="ZG" name="ZG" label="Zug" transform="translate(34.64101615137754, -15)" d="m0,-4.666666666666667l4.041451884327381,2.333333333333333l0,4.666666666666666l-4.04145188432738,2.3333333333333344l-4.041451884327381,-2.3333333333333313l-2.6645352591003757e-15,-4.666666666666666z" fill="#fff266"/><text dx="-.1em" text-anchor="middle" class="hex-id" transform="translate(34.64101615137754, -15)" font-size="2.6px" font-weight="bold" fill="#555">ZG</text></g><g><path id="SH" name="SH" label="Schaffhausen" transform="translate(38.97114317029974, -22.5)" d="m0,-4.666666666666667l4.041451884327381,2.333333333333333l0,4.666666666666666l-4.04145188432738,2.3333333333333344l-4.041451884327381,-2.3333333333333313l-2.6645352591003757e-15,-4.666666666666666z" fill="#fff266"/><text dx="-.1em" text-anchor="middle" class="hex-id" transform="translate(38.97114317029974, -22.5)" font-size="2.6px" font-weight="bold" fill="#555">SH</text></g><g><path id="UR" name="UR" label="Uri" transform="translate(34.64101615137754, 0)" d="m0,-4.666666666666667l4.041451884327381,2.333333333333333l0,4.666666666666666l-4.04145188432738,2.3333333333333344l-4.041451884327381,-2.3333333333333313l-2.6645352591003757e-15,-4.666666666666666z" fill="#fff266"/><text dx="-.1em" text-anchor="middle" class="hex-id" transform="translate(34.64101615137754, 0)" font-size="2.6px" font-weight="bold" fill="#555">UR</text></g><g><path id="AR" name="AR" label="Appenzell Ausserrhoden" transform="translate(38.97114317029973, -7.5)" d="m0,-4.666666666666667l4.041451884327381,2.333333333333333l0,4.666666666666666l-4.04145188432738,2.3333333333333344l-4.041451884327381,-2.3333333333333313l-2.6645352591003757e-15,-4.666666666666666z" fill="#fff266"/><text dx="-.1em" text-anchor="middle" class="hex-id" transform="translate(38.97114317029973, -7.5)" font-size="2.6px" font-weight="bold" fill="#555">AR</text></g><g><path id="TG" name="TG" label="Thurgau" transform="translate(43.301270189221924, -15)" d="m0,-4.666666666666667l4.041451884327381,2.333333333333333l0,4.666666666666666l-4.04145188432738,2.3333333333333344l-4.041451884327381,-2.3333333333333313l-2.6645352591003757e-15,-4.666666666666666z" fill="#fff266"/><text dx="-.1em" text-anchor="middle" class="hex-id" transform="translate(43.301270189221924, -15)" font-size="2.6px" font-weight="bold" fill="#555">TG</text></g><g><path id="TI" name="TI" label="Tessin" transform="translate(38.97114317029973, 7.5)" d="m0,-4.666666666666667l4.041451884327381,2.333333333333333l0,4.666666666666666l-4.04145188432738,2.3333333333333344l-4.041451884327381,-2.3333333333333313l-2.6645352591003757e-15,-4.666666666666666z" fill="#fff266"/><text dx="-.1em" text-anchor="middle" class="hex-id" transform="translate(38.97114317029973, 7.5)" font-size="2.6px" font-weight="bold" fill="#555">TI</text></g><g><path id="AI" name="AI" label="Appenzell Innerrhoden" transform="translate(43.301270189221924, 0)" d="m0,-4.666666666666667l4.041451884327381,2.333333333333333l0,4.666666666666666l-4.04145188432738,2.3333333333333344l-4.041451884327381,-2.3333333333333313l-2.6645352591003757e-15,-4.666666666666666z" fill="#fff266"/><text dx="-.1em" text-anchor="middle" class="hex-id" transform="translate(43.301270189221924, 0)" font-size="2.6px" font-weight="bold" fill="#555">AI</text></g><g><path id="SG" name="SG" label="St. Gallen" transform="translate(47.63139720814412, -7.5)" d="m0,-4.666666666666667l4.041451884327381,2.333333333333333l0,4.666666666666666l-4.04145188432738,2.3333333333333344l-4.041451884327381,-2.3333333333333313l-2.6645352591003757e-15,-4.666666666666666z" fill="#fff266"/><text dx="-.1em" text-anchor="middle" class="hex-id" transform="translate(47.63139720814412, -7.5)" font-size="2.6px" font-weight="bold" fill="#555">SG</text></g><g><path id="GL" name="GL" label="Glarus" transform="translate(51.961524227066306, 0)" d="m0,-4.666666666666667l4.041451884327381,2.333333333333333l0,4.666666666666666l-4.04145188432738,2.3333333333333344l-4.041451884327381,-2.3333333333333313l-2.6645352591003757e-15,-4.666666666666666z" fill="#fff266"/><text dx="-.1em" text-anchor="middle" class="hex-id" transform="translate(51.961524227066306, 0)" font-size="2.6px" font-weight="bold" fill="#555">GL</text></g><g><path id="GR" name="GR" label="Graubünden" transform="translate(56.291651245988504, -7.5)" d="m0,-4.666666666666667l4.041451884327381,2.333333333333333l0,4.666666666666666l-4.04145188432738,2.3333333333333344l-4.041451884327381,-2.3333333333333313l-2.6645352591003757e-15,-4.666666666666666z" fill="#fff266"/><text dx="-.1em" text-anchor="middle" class="hex-id" transform="translate(56.291651245988504, -7.5)" font-size="2.6px" font-weight="bold" fill="#555">GR</text></g><g><path id="SO" name="SO" label="Solothurn" transform="translate(17.32050807568877, -15)" d="m0,-4.666666666666667l4.041451884327381,2.333333333333333l0,4.666666666666666l-4.04145188432738,2.3333333333333344l-4.041451884327381,-2.3333333333333313l-2.6645352591003757e-15,-4.666666666666666z" fill="#fff266"/><text dx="-.1em" text-anchor="middle" class="hex-id" transform="translate(17.32050807568877, -15)" font-size="2.6px" font-weight="bold" fill="#555">SO</text></g></g></g></svg>
