<svg xmlns="http://www.w3.org/2000/svg" viewBox="-50,-50,100,100" id="canvas"><g class="tlg" transform="translate(-21.4725893793984,7.0101082853083785) scale(1.2311444133449163)"><g><g><path id="VD" name="VD" transform="translate(0, 0)" d="m0,-4.666666666666667l4.041451884327381,2.333333333333333l0,4.666666666666666l-4.04145188432738,2.3333333333333344l-4.041451884327381,-2.3333333333333313l-2.6645352591003757e-15,-4.666666666666666z" fill="#fff266"/><text dy=".35em" text-anchor="middle" class="hex-id" transform="translate(0, 0)" font-size="2px">VD</text></g><g><path id="GE" name="GE" transform="translate(-8.6602540378444, 0)" d="m0,-4.666666666666667l4.041451884327381,2.333333333333333l0,4.666666666666666l-4.04145188432738,2.3333333333333344l-4.041451884327381,-2.3333333333333313l-2.6645352591003757e-15,-4.666666666666666z" fill="#fff266"/><text dy=".35em" text-anchor="middle" class="hex-id" transform="translate(-8.6602540378444, 0)" font-size="2px">GE</text></g><g><path id="NE" name="NE" transform="translate(-4.330127018922198, -7.5)" d="m0,-4.666666666666667l4.041451884327381,2.333333333333333l0,4.666666666666666l-4.04145188432738,2.3333333333333344l-4.041451884327381,-2.3333333333333313l-2.6645352591003757e-15,-4.666666666666666z" fill="#fff266"/><text dy=".35em" text-anchor="middle" class="hex-id" transform="translate(-4.330127018922198, -7.5)" font-size="2px">NE</text></g><g><path id="SH" name="SH" transform="translate(-1.4210854715202004e-14, -15)" d="m0,-4.666666666666667l4.041451884327381,2.333333333333333l0,4.666666666666666l-4.04145188432738,2.3333333333333344l-4.041451884327381,-2.3333333333333313l-2.6645352591003757e-15,-4.666666666666666z" fill="#fff266"/><text dy=".35em" text-anchor="middle" class="hex-id" transform="translate(-1.4210854715202004e-14, -15)" font-size="2px">SH</text></g><g><path id="JU" name="JU" transform="translate(4.330127018922187, -22.5)" d="m0,-4.666666666666667l4.041451884327381,2.333333333333333l0,4.666666666666666l-4.04145188432738,2.3333333333333344l-4.041451884327381,-2.3333333333333313l-2.6645352591003757e-15,-4.666666666666666z" fill="#fff266"/><text dy=".35em" text-anchor="middle" class="hex-id" transform="translate(4.330127018922187, -22.5)" font-size="2px">JU</text></g><g><path id="BE" name="BE" transform="translate(4.330127018922187, -7.5)" d="m0,-4.666666666666667l4.041451884327381,2.333333333333333l0,4.666666666666666l-4.04145188432738,2.3333333333333344l-4.041451884327381,-2.3333333333333313l-2.6645352591003757e-15,-4.666666666666666z" fill="#fff266"/><text dy=".35em" text-anchor="middle" class="hex-id" transform="translate(4.330127018922187, -7.5)" font-size="2px">BE</text></g><g><path id="BS" name="BS" transform="translate(8.660254037844371, -15)" d="m0,-4.666666666666667l4.041451884327381,2.333333333333333l0,4.666666666666666l-4.04145188432738,2.3333333333333344l-4.041451884327381,-2.3333333333333313l-2.6645352591003757e-15,-4.666666666666666z" fill="#fff266"/><text dy=".35em" text-anchor="middle" class="hex-id" transform="translate(8.660254037844371, -15)" font-size="2px">BS</text></g><g><path id="AG" name="AG" transform="translate(12.990381056766573, -22.5)" d="m0,-4.666666666666667l4.041451884327381,2.333333333333333l0,4.666666666666666l-4.04145188432738,2.3333333333333344l-4.041451884327381,-2.3333333333333313l-2.6645352591003757e-15,-4.666666666666666z" fill="#fff266"/><text dy=".35em" text-anchor="middle" class="hex-id" transform="translate(12.990381056766573, -22.5)" font-size="2px">AG</text></g><g><path id="VS" name="VS" transform="translate(4.330127018922187, 7.5)" d="m0,-4.666666666666667l4.041451884327381,2.333333333333333l0,4.666666666666666l-4.04145188432738,2.3333333333333344l-4.041451884327381,-2.3333333333333313l-2.6645352591003757e-15,-4.666666666666666z" fill="#fff266"/><text dy=".35em" text-anchor="middle" class="hex-id" transform="translate(4.330127018922187, 7.5)" font-size="2px">VS</text></g><g><path id="FR" name="FR" transform="translate(8.660254037844371, 0)" d="m0,-4.666666666666667l4.041451884327381,2.333333333333333l0,4.666666666666666l-4.04145188432738,2.3333333333333344l-4.041451884327381,-2.3333333333333313l-2.6645352591003757e-15,-4.666666666666666z" fill="#fff266"/><text dy=".35em" text-anchor="middle" class="hex-id" transform="translate(8.660254037844371, 0)" font-size="2px">FR</text></g><g><path id="LU" name="LU" transform="translate(12.990381056766573, -7.5)" d="m0,-4.666666666666667l4.041451884327381,2.333333333333333l0,4.666666666666666l-4.04145188432738,2.3333333333333344l-4.041451884327381,-2.3333333333333313l-2.6645352591003757e-15,-4.666666666666666z" fill="#fff266"/><text dy=".35em" text-anchor="middle" class="hex-id" transform="translate(12.990381056766573, -7.5)" font-size="2px">LU</text></g><g><path id="BL" name="BL" transform="translate(17.320508075688757, -15)" d="m0,-4.666666666666667l4.041451884327381,2.333333333333333l0,4.666666666666666l-4.04145188432738,2.3333333333333344l-4.041451884327381,-2.3333333333333313l-2.6645352591003757e-15,-4.666666666666666z" fill="#fff266"/><text dy=".35em" text-anchor="middle" class="hex-id" transform="translate(17.320508075688757, -15)" font-size="2px">BL</text></g><g><path id="ZH" name="ZH" transform="translate(21.65063509461096, -22.5)" d="m0,-4.666666666666667l4.041451884327381,2.333333333333333l0,4.666666666666666l-4.04145188432738,2.3333333333333344l-4.041451884327381,-2.3333333333333313l-2.6645352591003757e-15,-4.666666666666666z" fill="#fff266"/><text dy=".35em" text-anchor="middle" class="hex-id" transform="translate(21.65063509461096, -22.5)" font-size="2px">ZH</text></g><g><path id="UR" name="UR" transform="translate(12.990381056766573, 7.5)" d="m0,-4.666666666666667l4.041451884327381,2.333333333333333l0,4.666666666666666l-4.04145188432738,2.3333333333333344l-4.041451884327381,-2.3333333333333313l-2.6645352591003757e-15,-4.666666666666666z" fill="#fff266"/><text dy=".35em" text-anchor="middle" class="hex-id" transform="translate(12.990381056766573, 7.5)" font-size="2px">UR</text></g><g><path id="OW" name="OW" transform="translate(17.320508075688757, 0)" d="m0,-4.666666666666667l4.041451884327381,2.333333333333333l0,4.666666666666666l-4.04145188432738,2.3333333333333344l-4.041451884327381,-2.3333333333333313l-2.6645352591003757e-15,-4.666666666666666z" fill="#fff266"/><text dy=".35em" text-anchor="middle" class="hex-id" transform="translate(17.320508075688757, 0)" font-size="2px">OW</text></g><g><path id="SZ" name="SZ" transform="translate(21.65063509461096, -7.5)" d="m0,-4.666666666666667l4.041451884327381,2.333333333333333l0,4.666666666666666l-4.04145188432738,2.3333333333333344l-4.041451884327381,-2.3333333333333313l-2.6645352591003757e-15,-4.666666666666666z" fill="#fff266"/><text dy=".35em" text-anchor="middle" class="hex-id" transform="translate(21.65063509461096, -7.5)" font-size="2px">SZ</text></g><g><path id="ZG" name="ZG" transform="translate(25.980762113533142, -15)" d="m0,-4.666666666666667l4.041451884327381,2.333333333333333l0,4.666666666666666l-4.04145188432738,2.3333333333333344l-4.041451884327381,-2.3333333333333313l-2.6645352591003757e-15,-4.666666666666666z" fill="#fff266"/><text dy=".35em" text-anchor="middle" class="hex-id" transform="translate(25.980762113533142, -15)" font-size="2px">ZG</text></g><g><path id="SH" name="SH" transform="translate(30.310889132455344, -22.5)" d="m0,-4.666666666666667l4.041451884327381,2.333333333333333l0,4.666666666666666l-4.04145188432738,2.3333333333333344l-4.041451884327381,-2.3333333333333313l-2.6645352591003757e-15,-4.666666666666666z" fill="#fff266"/><text dy=".35em" text-anchor="middle" class="hex-id" transform="translate(30.310889132455344, -22.5)" font-size="2px">SH</text></g><g><path id="NW" name="NW" transform="translate(25.980762113533157, 0)" d="m0,-4.666666666666667l4.041451884327381,2.333333333333333l0,4.666666666666666l-4.04145188432738,2.3333333333333344l-4.041451884327381,-2.3333333333333313l-2.6645352591003757e-15,-4.666666666666666z" fill="#fff266"/><text dy=".35em" text-anchor="middle" class="hex-id" transform="translate(25.980762113533157, 0)" font-size="2px">NW</text></g><g><path id="AR" name="AR" transform="translate(30.31088913245535, -7.5)" d="m0,-4.666666666666667l4.041451884327381,2.333333333333333l0,4.666666666666666l-4.04145188432738,2.3333333333333344l-4.041451884327381,-2.3333333333333313l-2.6645352591003757e-15,-4.666666666666666z" fill="#fff266"/><text dy=".35em" text-anchor="middle" class="hex-id" transform="translate(30.31088913245535, -7.5)" font-size="2px">AR</text></g><g><path id="TG" name="TG" transform="translate(34.64101615137754, -15)" d="m0,-4.666666666666667l4.041451884327381,2.333333333333333l0,4.666666666666666l-4.04145188432738,2.3333333333333344l-4.041451884327381,-2.3333333333333313l-2.6645352591003757e-15,-4.666666666666666z" fill="#fff266"/><text dy=".35em" text-anchor="middle" class="hex-id" transform="translate(34.64101615137754, -15)" font-size="2px">TG</text></g><g><path id="TI" name="TI" transform="translate(30.31088913245535, 7.5)" d="m0,-4.666666666666667l4.041451884327381,2.333333333333333l0,4.666666666666666l-4.04145188432738,2.3333333333333344l-4.041451884327381,-2.3333333333333313l-2.6645352591003757e-15,-4.666666666666666z" fill="#fff266"/><text dy=".35em" text-anchor="middle" class="hex-id" transform="translate(30.31088913245535, 7.5)" font-size="2px">TI</text></g><g><path id="SG" name="SG" transform="translate(34.64101615137754, 0)" d="m0,-4.666666666666667l4.041451884327381,2.333333333333333l0,4.666666666666666l-4.04145188432738,2.3333333333333344l-4.041451884327381,-2.3333333333333313l-2.6645352591003757e-15,-4.666666666666666z" fill="#fff266"/><text dy=".35em" text-anchor="middle" class="hex-id" transform="translate(34.64101615137754, 0)" font-size="2px">SG</text></g><g><path id="AI" name="AI" transform="translate(38.97114317029974, -7.5)" d="m0,-4.666666666666667l4.041451884327381,2.333333333333333l0,4.666666666666666l-4.04145188432738,2.3333333333333344l-4.041451884327381,-2.3333333333333313l-2.6645352591003757e-15,-4.666666666666666z" fill="#fff266"/><text dy=".35em" text-anchor="middle" class="hex-id" transform="translate(38.97114317029974, -7.5)" font-size="2px">AI</text></g><g><path id="GL" name="GL" transform="translate(43.301270189221924, 0)" d="m0,-4.666666666666667l4.041451884327381,2.333333333333333l0,4.666666666666666l-4.04145188432738,2.3333333333333344l-4.041451884327381,-2.3333333333333313l-2.6645352591003757e-15,-4.666666666666666z" fill="#fff266"/><text dy=".35em" text-anchor="middle" class="hex-id" transform="translate(43.301270189221924, 0)" font-size="2px">GL</text></g><g><path id="GR" name="GR" transform="translate(47.63139720814412, -7.5)" d="m0,-4.666666666666667l4.041451884327381,2.333333333333333l0,4.666666666666666l-4.04145188432738,2.3333333333333344l-4.041451884327381,-2.3333333333333313l-2.6645352591003757e-15,-4.666666666666666z" fill="#fff266"/><text dy=".35em" text-anchor="middle" class="hex-id" transform="translate(47.63139720814412, -7.5)" font-size="2px">GR</text></g></g></g></svg>
