<?xml version="1.0" encoding="utf-8"?>
<!-- Generator: Adobe Illustrator 15.0.1, SVG Export Plug-In  -->
<!DOCTYPE svg PUBLIC "-//W3C//DTD SVG 1.1//EN" "http://www.w3.org/Graphics/SVG/1.1/DTD/svg11.dtd" [
	<!ENTITY ns_flows "http://ns.adobe.com/Flows/1.0/">
]>
<svg version="1.1"
	 xmlns="http://www.w3.org/2000/svg" xmlns:xlink="http://www.w3.org/1999/xlink" xmlns:a="http://ns.adobe.com/AdobeSVGViewerExtensions/3.0/"
	 x="0px" y="0px" width="287px" height="65px" viewBox="0 0 287 65" overflow="visible" enable-background="new 0 0 287 65"
	 xml:space="preserve">
<defs>
</defs>
<path fill="#FFFFFF" d="M75.972,26.968c-1.169-1.118-2.686-1.84-4.378-1.84c-1.566,0-2.66,0.646-2.66,1.716
	c0,1.095,0.771,1.542,2.312,1.841l2.735,0.547c3.134,0.622,5.099,1.865,5.099,4.85c0,3.507-3.108,5.446-7.113,5.446
	c-3.903,0-6.59-2.089-7.634-3.531l2.611-2.238c1.044,1.393,2.784,2.637,5.122,2.637c1.965,0,3.109-0.771,3.109-2.015
	c0-1.17-0.995-1.492-2.537-1.766L70.45,32.19c-3.084-0.596-5.422-1.716-5.422-5.023c0-3.033,2.811-5.147,6.517-5.147
	c2.983,0,5.371,1.119,6.813,2.661L75.972,26.968L75.972,26.968z"/>
<path fill="#FFFFFF" d="M89.725,34.653c-0.249-1.193-0.548-2.761-0.796-4.029h-0.025c-0.273,1.193-0.522,2.785-0.821,4.079
	l-0.994,4.526h-4.526l-2.984-11.838h3.73l0.945,5.123c0.224,1.218,0.422,2.412,0.671,3.631h0.025
	c0.273-1.169,0.497-2.264,0.846-3.706l1.243-5.048h3.88l1.269,5.098c0.397,1.567,0.546,2.438,0.82,3.656h0.024
	c0.249-1.193,0.398-2.015,0.722-3.73l0.97-5.023h3.581l-3.133,11.838h-4.477L89.725,34.653L89.725,34.653z"/>
<path fill="#FFFFFF" d="M103.502,39.229h-3.656V27.392h3.656V39.229L103.502,39.229z M103.502,25.874h-3.656v-3.557h3.656V25.874
	L103.502,25.874z"/>
<path fill="#FFFFFF" d="M114.146,30.997c-0.87-0.796-2.039-1.293-3.208-1.293c-0.82,0-1.542,0.273-1.542,0.87
	c0,0.622,0.548,0.797,1.766,1.045l1.865,0.397c1.915,0.398,3.656,1.17,3.656,3.433c0,2.76-2.413,4.078-5.223,4.078
	c-2.711,0-4.999-1.193-6.068-2.66l2.288-1.841c0.722,0.995,2.139,1.815,3.78,1.815c1.219,0,1.84-0.397,1.84-1.045
	c0-0.671-0.721-0.796-1.517-0.945l-1.865-0.372c-1.193-0.225-2.214-0.622-2.935-1.243c-0.646-0.548-1.02-1.319-1.02-2.313
	c0-2.811,2.71-3.83,5.048-3.83c2.214,0,3.979,0.821,5.173,1.965L114.146,30.997L114.146,30.997z"/>
<path fill="#FFFFFF" d="M126.307,30.997c-0.87-0.796-2.039-1.293-3.208-1.293c-0.821,0-1.542,0.273-1.542,0.87
	c0,0.622,0.548,0.797,1.766,1.045l1.866,0.397c1.914,0.398,3.655,1.17,3.655,3.433c0,2.76-2.412,4.078-5.223,4.078
	c-2.711,0-4.999-1.193-6.068-2.66l2.288-1.841c0.722,0.995,2.139,1.815,3.78,1.815c1.219,0,1.841-0.397,1.841-1.045
	c0-0.671-0.722-0.796-1.518-0.945l-1.865-0.372c-1.194-0.225-2.213-0.622-2.935-1.243c-0.646-0.548-1.02-1.319-1.02-2.313
	c0-2.811,2.71-3.83,5.049-3.83c2.213,0,3.979,0.821,5.173,1.965L126.307,30.997L126.307,30.997z"/>
<path fill="#FFFFFF" d="M145.332,28.933c1.343,2.214,2.487,4.327,2.487,4.327h0.024c0,0-0.149-3.331-0.149-5.297v-5.646h3.706
	v16.912h-3.78l-4.005-6.516c-0.944-1.567-2.561-4.552-2.561-4.552h-0.025c0,0,0.175,2.811,0.175,5.521v5.546h-3.731V22.317h3.806
	L145.332,28.933L145.332,28.933z"/>
<path fill="#FFFFFF" d="M161.273,33.857c-0.273,0.1-0.497,0.224-1.766,0.473c-1.169,0.224-2.039,0.423-2.039,1.442
	c0,0.97,0.721,1.393,1.766,1.393c1.193,0,2.039-0.547,2.039-1.791V33.857L161.273,33.857z M164.656,36.27
	c0,0.746,0.099,0.995,0.622,0.995h0.173v2.089c-0.547,0.1-1.094,0.149-1.69,0.149c-1.045,0-2.016-0.199-2.264-1.07h-0.024
	c-0.548,0.598-1.418,1.095-3.333,1.095c-2.611,0-4.277-1.343-4.277-3.805c0-2.263,1.716-3.158,4.228-3.557l2.462-0.398
	c0.647-0.1,0.747-0.173,0.747-0.546v-0.199c0-0.896-0.498-1.393-1.741-1.393c-1.269,0-1.965,0.521-1.965,1.716l-3.357-0.024
	c-0.05-2.712,2.139-4.179,5.472-4.179c3.034,0,4.949,0.945,4.949,3.631V36.27L164.656,36.27z"/>
<path fill="#FFFFFF" d="M174.627,39.279c-0.496,0.1-1.318,0.198-2.188,0.198c-1.418,0-2.911-0.198-3.532-1.02
	c-0.448-0.597-0.497-1.243-0.497-2.437v-6.168h-2.288v-2.462h2.288v-4.029l3.63-0.721v4.75h2.586v2.462h-2.586v5.248
	c0,0.671,0.074,0.994,0.299,1.218c0.248,0.273,0.695,0.373,1.367,0.373c0.424,0,0.746-0.025,0.92-0.049V39.279L174.627,39.279z"/>
<path fill="#FFFFFF" d="M180.422,39.229h-3.656V27.392h3.656V39.229L180.422,39.229z M180.422,25.874h-3.656v-3.557h3.656V25.874
	L180.422,25.874z"/>
<path fill="#FFFFFF" d="M189.051,36.767c1.666,0,2.611-1.293,2.611-3.456c0-2.214-0.918-3.482-2.611-3.482
	c-1.691,0-2.586,1.294-2.586,3.482S187.387,36.767,189.051,36.767L189.051,36.767z M189.051,27.093c3.73,0,6.293,2.264,6.293,6.267
	c0,4.005-2.562,6.168-6.293,6.168s-6.266-2.163-6.266-6.168C182.786,29.356,185.321,27.093,189.051,27.093L189.051,27.093z"/>
<path fill="#FFFFFF" d="M208.997,39.229h-3.631v-5.97c0-1.814-0.074-3.083-1.865-3.083c-1.518,0-2.164,1.194-2.164,2.811v6.242
	h-3.629V27.392h3.58v1.467c0.572-0.97,1.865-1.766,3.557-1.766c1.367,0,2.412,0.373,3.107,1.145
	c0.746,0.845,1.045,1.665,1.045,4.277V39.229L208.997,39.229z"/>
<path fill="#FFFFFF" d="M218.647,33.857c-0.273,0.1-0.498,0.224-1.766,0.473c-1.17,0.224-2.041,0.423-2.041,1.442
	c0,0.97,0.721,1.393,1.768,1.393c1.193,0,2.039-0.547,2.039-1.791V33.857L218.647,33.857z M222.028,36.27
	c0,0.746,0.1,0.995,0.623,0.995h0.174v2.089c-0.547,0.1-1.094,0.149-1.691,0.149c-1.045,0-2.014-0.199-2.264-1.07h-0.023
	c-0.549,0.598-1.418,1.095-3.334,1.095c-2.611,0-4.277-1.343-4.277-3.805c0-2.263,1.717-3.158,4.229-3.557l2.461-0.398
	c0.648-0.1,0.746-0.173,0.746-0.546v-0.199c0-0.896-0.496-1.393-1.74-1.393c-1.268,0-1.965,0.521-1.965,1.716l-3.357-0.024
	c-0.049-2.712,2.139-4.179,5.473-4.179c3.033,0,4.947,0.945,4.947,3.631V36.27L222.028,36.27z"/>
<polygon fill="#FFFFFF" points="228.817,39.229 225.188,39.229 225.188,22.317 228.817,22.317 228.817,39.229 "/>
<path fill="#FFFFFF" d="M75.972,51.838c-1.169-1.119-2.686-1.841-4.378-1.841c-1.566,0-2.66,0.647-2.66,1.716
	c0,1.095,0.771,1.543,2.312,1.842l2.735,0.547c3.134,0.622,5.099,1.865,5.099,4.849c0,3.507-3.108,5.447-7.113,5.447
	c-3.903,0-6.59-2.09-7.634-3.532l2.611-2.238c1.044,1.394,2.784,2.637,5.122,2.637c1.965,0,3.109-0.771,3.109-2.015
	c0-1.169-0.995-1.492-2.537-1.766l-2.188-0.423c-3.084-0.598-5.422-1.716-5.422-5.023c0-3.034,2.811-5.148,6.517-5.148
	c2.983,0,5.371,1.12,6.813,2.661L75.972,51.838L75.972,51.838z"/>
<path fill="#FFFFFF" d="M92.236,61.164c-0.647,1.666-2.312,3.233-5.447,3.233c-3.73,0-6.267-2.164-6.267-6.168
	s2.536-6.268,6.267-6.268c3.283,0,4.975,1.766,5.571,3.681l-3.134,1.069c-0.348-1.293-1.168-2.014-2.438-2.014
	c-1.69,0-2.586,1.293-2.586,3.481s0.92,3.457,2.586,3.457c1.17,0,1.99-0.622,2.363-1.741L92.236,61.164L92.236,61.164z"/>
<path fill="#FFFFFF" d="M97.732,64.099h-3.656V52.261h3.656V64.099L97.732,64.099z M97.732,50.744h-3.656v-3.557h3.656V50.744
	L97.732,50.744z"/>
<path fill="#FFFFFF" d="M103.602,56.787h4.949c-0.075-1.368-0.945-2.312-2.413-2.312C104.72,54.475,103.651,55.544,103.602,56.787
	L103.602,56.787z M111.907,61.587c-0.696,0.995-2.412,2.811-5.67,2.811c-3.481,0-6.143-2.288-6.143-6.268
	c0-3.705,2.536-6.168,6.067-6.168c3.905,0,5.895,2.811,5.895,6.416c0,0.249,0,0.522-0.024,0.747h-8.431
	c0.124,1.293,1.068,2.412,2.859,2.412c1.592,0,2.537-0.945,2.935-1.642L111.907,61.587L111.907,61.587z"/>
<path fill="#FFFFFF" d="M125.66,64.099h-3.631V58.13c0-1.815-0.075-3.084-1.865-3.084c-1.518,0-2.164,1.194-2.164,2.811v6.242
	h-3.631V52.261h3.582v1.467c0.571-0.969,1.865-1.766,3.556-1.766c1.368,0,2.412,0.373,3.109,1.145
	c0.745,0.846,1.044,1.666,1.044,4.277V64.099L125.66,64.099z"/>
<path fill="#FFFFFF" d="M139.637,61.164c-0.646,1.666-2.312,3.233-5.446,3.233c-3.73,0-6.268-2.164-6.268-6.168
	s2.537-6.268,6.268-6.268c3.282,0,4.974,1.766,5.57,3.681l-3.134,1.069c-0.348-1.293-1.168-2.014-2.437-2.014
	c-1.691,0-2.587,1.293-2.587,3.481s0.921,3.457,2.587,3.457c1.169,0,1.989-0.622,2.362-1.741L139.637,61.164L139.637,61.164z"/>
<path fill="#FFFFFF" d="M144.163,56.787h4.949c-0.075-1.368-0.945-2.312-2.413-2.312C145.282,54.475,144.212,55.544,144.163,56.787
	L144.163,56.787z M152.469,61.587c-0.696,0.995-2.412,2.811-5.67,2.811c-3.481,0-6.143-2.288-6.143-6.268
	c0-3.705,2.536-6.168,6.068-6.168c3.904,0,5.894,2.811,5.894,6.416c0,0.249,0,0.522-0.024,0.747h-8.431
	c0.124,1.293,1.069,2.412,2.859,2.412c1.592,0,2.537-0.945,2.935-1.642L152.469,61.587L152.469,61.587z"/>
<polygon fill="#FFFFFF" points="165.028,50.495 165.028,53.827 171.917,53.827 171.917,57.185 165.028,57.185 165.028,64.099 
	161.272,64.099 161.272,47.188 172.241,47.188 172.241,50.495 165.028,50.495 "/>
<path fill="#FFFFFF" d="M179.153,61.637c1.668,0,2.613-1.294,2.613-3.457c0-2.213-0.922-3.481-2.613-3.481
	c-1.689,0-2.586,1.293-2.586,3.481S177.489,61.637,179.153,61.637L179.153,61.637z M179.153,51.962c3.732,0,6.293,2.264,6.293,6.268
	s-2.561,6.168-6.293,6.168c-3.729,0-6.266-2.164-6.266-6.168S175.424,51.962,179.153,51.962L179.153,51.962z"/>
<path fill="#FFFFFF" d="M187.659,52.261h3.631v5.969c0,1.815,0.025,3.084,1.816,3.084c1.467,0,2.113-1.194,2.113-2.81v-6.243h3.631
	v11.838h-3.582v-1.467c-0.57,0.97-1.838,1.766-3.506,1.766c-1.367,0-2.361-0.373-3.059-1.144c-0.746-0.847-1.045-1.667-1.045-4.278
	V52.261L187.659,52.261z"/>
<path fill="#FFFFFF" d="M213.325,64.099h-3.631V58.13c0-1.815-0.076-3.084-1.865-3.084c-1.518,0-2.164,1.194-2.164,2.811v6.242
	h-3.631V52.261h3.582v1.467c0.57-0.969,1.863-1.766,3.555-1.766c1.369,0,2.412,0.373,3.109,1.145
	c0.746,0.846,1.045,1.666,1.045,4.277V64.099L213.325,64.099z"/>
<path fill="#FFFFFF" d="M221.954,54.724c-1.691,0-2.686,1.343-2.686,3.456c0,2.163,0.92,3.482,2.686,3.482
	c1.615,0,2.711-1.418,2.711-3.482C224.665,56.116,223.569,54.724,221.954,54.724L221.954,54.724z M224.565,53.331v-6.144h3.629
	v16.911h-3.629v-1.094c-0.572,0.646-1.84,1.393-3.482,1.393c-3.357,0-5.496-2.486-5.496-6.218c0-3.605,2.215-6.218,5.521-6.218
	C222.825,51.962,223.967,52.609,224.565,53.331L224.565,53.331z"/>
<path fill="#FFFFFF" d="M237.946,58.727c-0.273,0.1-0.498,0.224-1.768,0.473c-1.168,0.225-2.039,0.423-2.039,1.442
	c0,0.971,0.723,1.393,1.766,1.393c1.195,0,2.041-0.547,2.041-1.79V58.727L237.946,58.727z M241.325,61.14
	c0,0.745,0.1,0.994,0.623,0.994h0.174v2.089c-0.547,0.1-1.094,0.149-1.689,0.149c-1.045,0-2.014-0.198-2.262-1.068h-0.027
	c-0.545,0.596-1.416,1.094-3.332,1.094c-2.611,0-4.279-1.343-4.279-3.806c0-2.264,1.717-3.158,4.23-3.557l2.461-0.396
	c0.648-0.101,0.748-0.176,0.748-0.548v-0.199c0-0.895-0.498-1.393-1.742-1.393c-1.268,0-1.965,0.521-1.965,1.716l-3.357-0.024
	c-0.051-2.711,2.139-4.179,5.473-4.179c3.033,0,4.945,0.945,4.945,3.631V61.14L241.325,61.14z"/>
<path fill="#FFFFFF" d="M251.299,64.148c-0.498,0.1-1.318,0.199-2.188,0.199c-1.418,0-2.91-0.199-3.533-1.021
	c-0.447-0.596-0.496-1.243-0.496-2.437v-6.167h-2.289v-2.463h2.289v-4.028l3.631-0.722v4.75h2.586v2.463h-2.586v5.246
	c0,0.672,0.074,0.995,0.299,1.22c0.248,0.273,0.695,0.372,1.367,0.372c0.422,0,0.746-0.024,0.92-0.049V64.148L251.299,64.148z"/>
<path fill="#FFFFFF" d="M257.094,64.099h-3.656V52.261h3.656V64.099L257.094,64.099z M257.094,50.744h-3.656v-3.557h3.656V50.744
	L257.094,50.744z"/>
<path fill="#FFFFFF" d="M265.723,61.637c1.668,0,2.609-1.294,2.609-3.457c0-2.213-0.92-3.481-2.609-3.481s-2.586,1.293-2.586,3.481
	S264.057,61.637,265.723,61.637L265.723,61.637z M265.723,51.962c3.73,0,6.291,2.264,6.291,6.268s-2.561,6.168-6.291,6.168
	s-6.268-2.164-6.268-6.168S261.993,51.962,265.723,51.962L265.723,51.962z"/>
<path fill="#FFFFFF" d="M285.668,64.099h-3.631V58.13c0-1.815-0.076-3.084-1.863-3.084c-1.518,0-2.166,1.194-2.166,2.811v6.242
	h-3.631V52.261h3.582v1.467c0.572-0.969,1.865-1.766,3.557-1.766c1.365,0,2.41,0.373,3.107,1.145
	c0.746,0.846,1.045,1.666,1.045,4.277V64.099L285.668,64.099z"/>
<path fill="#FFFFFF" d="M54.486,4.688H37.273c0.024,0.198,0.061,0.394,0.061,0.599c0,0.204-0.036,0.399-0.061,0.598h17.213
	c-0.023-0.198-0.061-0.394-0.061-0.598C54.426,5.081,54.463,4.886,54.486,4.688z"/>
<path fill="#FFFFFF" d="M5.285,54.426c0.205,0,0.4,0.037,0.599,0.061V37.274c-0.198,0.023-0.394,0.06-0.599,0.06
	c-0.204,0-0.399-0.036-0.598-0.06v17.212C4.886,54.463,5.081,54.426,5.285,54.426z"/>
<path fill="#FFFFFF" d="M32.946,27.4V10.212c-0.198,0.022-0.394,0.06-0.598,0.06s-0.399-0.037-0.598-0.06V27.4
	c-0.905,0.108-1.736,0.458-2.426,0.985c-0.104,0.08-0.206,0.164-0.305,0.252c-0.066,0.061-0.133,0.122-0.196,0.186
	c-0.77,0.77-1.288,1.79-1.424,2.928H10.211c0.023,0.198,0.061,0.394,0.061,0.598c0,0.205-0.037,0.399-0.061,0.598H27.4
	c0.284,2.382,2.247,4.248,4.673,4.38c0.091,0.005,0.183,0.008,0.275,0.008c0.013,0,0.024,0,0.037,0
	c0.157-0.002,0.312-0.01,0.467-0.025c0.002,0,0.004,0,0.006,0c1.074-0.109,2.047-0.56,2.81-1.241
	c0.011-0.009,0.021-0.019,0.032-0.028c0.029-0.025,0.057-0.053,0.084-0.079c0.03-0.029,0.061-0.057,0.09-0.086
	c0.011-0.011,0.021-0.023,0.032-0.034c0.046-0.046,0.09-0.092,0.133-0.139c0.008-0.009,0.015-0.019,0.022-0.026
	c0.791-0.882,1.272-2.048,1.272-3.326C37.334,29.798,35.418,27.696,32.946,27.4z"/>
<path fill="#5298BD" d="M5.285,27.363c-2.753,0-4.985,2.232-4.985,4.985s2.232,4.985,4.985,4.985c2.754,0,4.986-2.232,4.986-4.985
	S8.039,27.363,5.285,27.363L5.285,27.363z"/>
<path fill="#5298BD" d="M59.411,0.3c-2.753,0-4.985,2.232-4.985,4.986c0,2.753,2.232,4.985,4.985,4.985
	c2.755,0,4.986-2.232,4.986-4.985C64.397,2.532,62.166,0.3,59.411,0.3L59.411,0.3z"/>
<path fill="#C95B40" d="M32.349,0.3c-2.753,0-4.984,2.232-4.984,4.986c0,2.753,2.231,4.985,4.984,4.985s4.985-2.232,4.985-4.985
	C37.334,2.532,35.102,0.3,32.349,0.3L32.349,0.3z"/>
<path fill="#C95B40" d="M5.285,54.426c-2.753,0-4.985,2.232-4.985,4.986c0,2.753,2.232,4.985,4.985,4.985
	c2.754,0,4.986-2.232,4.986-4.985C10.271,56.658,8.039,54.426,5.285,54.426L5.285,54.426z"/>
<rect id="_x3C_Slice_x3E__2_" fill="none" width="287" height="65"/>
</svg>
