<?xml version="1.0" encoding="utf-8"?>
<!-- Generator: Adobe Illustrator 15.0.1, SVG Export Plug-In  -->
<!DOCTYPE svg PUBLIC "-//W3C//DTD SVG 1.1//EN" "http://www.w3.org/Graphics/SVG/1.1/DTD/svg11.dtd" [
	<!ENTITY ns_flows "http://ns.adobe.com/Flows/1.0/">
]>
<svg version="1.1"
	 xmlns="http://www.w3.org/2000/svg" xmlns:xlink="http://www.w3.org/1999/xlink" xmlns:a="http://ns.adobe.com/AdobeSVGViewerExtensions/3.0/"
	 x="0px" y="0px" width="287px" height="65px" viewBox="0 0 287 65" overflow="visible" enable-background="new 0 0 287 65"
	 xml:space="preserve">
<defs>
</defs>
<path fill="#FFFFFF" d="M160.859,35.399c0,1.243-0.845,1.789-2.037,1.789c-1.044,0-1.765-0.422-1.765-1.392
	c0-1.019,0.869-1.218,2.038-1.441c1.267-0.248,1.49-0.372,1.764-0.472V35.399L160.859,35.399z M164.239,36.294v-5.491
	c0-2.684-1.914-3.628-4.945-3.628c-3.329,0-5.517,1.466-5.466,4.175l3.354,0.024c0-1.192,0.695-1.714,1.962-1.714
	c1.243,0,1.74,0.497,1.74,1.391v0.199c0,0.372-0.101,0.447-0.746,0.547l-2.46,0.397c-2.51,0.397-4.224,1.292-4.224,3.553
	c0,2.46,1.665,3.803,4.273,3.803c1.914,0,2.783-0.497,3.33-1.094h0.024c0.249,0.869,1.218,1.068,2.261,1.068
	c0.597,0,1.144-0.05,1.69-0.149v-2.087h-0.174C164.338,37.288,164.239,37.04,164.239,36.294L164.239,36.294z M171.62,22.677
	l-3.629,0.721v4.025h-2.285v2.46h2.285v6.162c0,1.193,0.05,1.84,0.497,2.437c0.621,0.819,2.113,1.018,3.529,1.018
	c0.869,0,1.689-0.099,2.186-0.198v-2.635c-0.174,0.025-0.496,0.051-0.918,0.051c-0.67,0-1.119-0.101-1.367-0.373
	c-0.223-0.224-0.297-0.547-0.297-1.218v-5.243h2.582v-2.46h-2.582V22.677L171.62,22.677z M147.069,27.125
	c-1.69,0-2.981,0.795-3.554,1.765v-1.467h-3.578v11.828h3.628v-6.236c0-1.615,0.646-2.808,2.162-2.808
	c1.789,0,1.863,1.267,1.863,3.08v5.964h3.628v-6.709c0-2.609-0.299-3.429-1.044-4.273C149.479,27.498,148.436,27.125,147.069,27.125
	L147.069,27.125z M105.151,56.894l-1.864-0.398c-1.217-0.248-1.765-0.422-1.765-1.043c0-0.597,0.722-0.87,1.542-0.87
	c1.167,0,2.335,0.497,3.205,1.292l2.037-1.938c-1.192-1.144-2.957-1.964-5.168-1.964c-2.336,0-5.045,1.019-5.045,3.827
	c0,0.994,0.373,1.765,1.019,2.312c0.721,0.621,1.74,1.019,2.933,1.241l1.863,0.373c0.796,0.149,1.516,0.273,1.516,0.944
	c0,0.646-0.62,1.044-1.838,1.044c-1.64,0-3.057-0.82-3.777-1.813l-2.286,1.838c1.068,1.466,3.355,2.659,6.063,2.659
	c2.808,0,5.218-1.317,5.218-4.075C108.804,58.062,107.064,57.291,105.151,56.894L105.151,56.894z M125.8,56.794
	c0.049-1.243,1.118-2.312,2.534-2.312c1.467,0,2.337,0.944,2.41,2.312H125.8L125.8,56.794z M128.358,51.973
	c-3.528,0-6.062,2.461-6.062,6.163c0,3.975,2.659,6.262,6.138,6.262c3.255,0,4.97-1.814,5.666-2.808l-2.51-1.689
	c-0.398,0.694-1.343,1.64-2.933,1.64c-1.789,0-2.733-1.118-2.857-2.41h8.423c0.025-0.224,0.025-0.497,0.025-0.746
	C134.248,54.78,132.261,51.973,128.358,51.973L128.358,51.973z M117.302,56.894l-1.864-0.398c-1.217-0.248-1.764-0.422-1.764-1.043
	c0-0.597,0.721-0.87,1.541-0.87c1.168,0,2.335,0.497,3.205,1.292l2.037-1.938c-1.192-1.144-2.956-1.964-5.168-1.964
	c-2.336,0-5.044,1.019-5.044,3.827c0,0.994,0.373,1.765,1.019,2.312c0.721,0.621,1.739,1.019,2.932,1.241l1.863,0.373
	c0.796,0.149,1.517,0.273,1.517,0.944c0,0.646-0.621,1.044-1.839,1.044c-1.64,0-3.057-0.82-3.776-1.813l-2.287,1.838
	c1.068,1.466,3.355,2.659,6.063,2.659c2.808,0,5.218-1.317,5.218-4.075C120.954,58.062,119.215,57.291,117.302,56.894
	L117.302,56.894z M176.338,25.907h3.654v-3.553h-3.654V25.907L176.338,25.907z M224.717,22.354v16.896h3.627V22.354H224.717
	L224.717,22.354z M218.182,35.399c0,1.243-0.844,1.789-2.037,1.789c-1.045,0-1.764-0.422-1.764-1.392
	c0-1.019,0.869-1.218,2.037-1.441c1.268-0.248,1.49-0.372,1.764-0.472V35.399L218.182,35.399z M221.563,36.294v-5.491
	c0-2.684-1.914-3.628-4.945-3.628c-3.33,0-5.516,1.466-5.467,4.175l3.354,0.024c0-1.192,0.695-1.714,1.963-1.714
	c1.242,0,1.74,0.497,1.74,1.391v0.199c0,0.372-0.1,0.447-0.746,0.547l-2.459,0.397c-2.51,0.397-4.225,1.292-4.225,3.553
	c0,2.46,1.664,3.803,4.273,3.803c1.914,0,2.783-0.497,3.33-1.094h0.025c0.248,0.869,1.217,1.068,2.26,1.068
	c0.598,0,1.145-0.05,1.689-0.149v-2.087h-0.174C221.661,37.288,221.563,37.04,221.563,36.294L221.563,36.294z M99.784,33.287v5.964
	h3.628v-6.709c0-2.609-0.299-3.429-1.044-4.273c-0.696-0.771-1.739-1.144-3.105-1.144c-1.689,0-2.981,0.795-3.554,1.765v-1.467
	h-3.578v11.828h3.628v-6.236c0-1.615,0.646-2.808,2.162-2.808C99.71,30.207,99.784,31.474,99.784,33.287L99.784,33.287z
	 M176.338,39.251h3.654V27.423h-3.654V39.251L176.338,39.251z M204.393,27.125c-1.691,0-2.982,0.795-3.555,1.765v-1.467h-3.578
	v11.828h3.629v-6.236c0-1.615,0.645-2.808,2.16-2.808c1.789,0,1.863,1.267,1.863,3.08v5.964h3.629v-6.709
	c0-2.609-0.297-3.429-1.043-4.273C206.801,27.498,205.758,27.125,204.393,27.125L204.393,27.125z M188.614,36.791
	c-1.664,0-2.584-1.268-2.584-3.454s0.895-3.479,2.584-3.479s2.609,1.268,2.609,3.479C191.223,35.499,190.278,36.791,188.614,36.791
	L188.614,36.791z M188.614,27.125c-3.727,0-6.262,2.262-6.262,6.262s2.535,6.163,6.262,6.163c3.729,0,6.287-2.163,6.287-6.163
	S192.342,27.125,188.614,27.125L188.614,27.125z M71.83,56.894l-1.862-0.398c-1.219-0.248-1.766-0.422-1.766-1.043
	c0-0.597,0.721-0.87,1.541-0.87c1.167,0,2.336,0.497,3.205,1.292l2.038-1.938c-1.192-1.144-2.957-1.964-5.168-1.964
	c-2.336,0-5.045,1.019-5.045,3.827c0,0.994,0.372,1.765,1.02,2.312c0.72,0.621,1.739,1.019,2.932,1.241l1.863,0.373
	c0.795,0.149,1.517,0.273,1.517,0.944c0,0.646-0.622,1.044-1.839,1.044c-1.641,0-3.057-0.82-3.777-1.813l-2.285,1.838
	c1.068,1.466,3.354,2.659,6.062,2.659c2.808,0,5.218-1.317,5.218-4.075C75.483,58.062,73.744,57.291,71.83,56.894L71.83,56.894z
	 M65.618,39.251h3.753v-6.907h6.883v-3.354h-6.883v-3.33h7.205v-3.305H65.618V39.251L65.618,39.251z M126.222,36.865
	c-1.64,0-3.056-0.82-3.776-1.812l-2.286,1.838c1.069,1.466,3.354,2.659,6.062,2.659c2.809,0,5.219-1.317,5.219-4.075
	c0-2.262-1.739-3.032-3.653-3.429l-1.863-0.398c-1.218-0.248-1.765-0.422-1.765-1.044c0-0.596,0.721-0.869,1.54-0.869
	c1.169,0,2.336,0.497,3.206,1.293l2.038-1.938c-1.193-1.144-2.957-1.964-5.169-1.964c-2.335,0-5.044,1.019-5.044,3.827
	c0,0.994,0.373,1.764,1.02,2.311c0.72,0.621,1.738,1.019,2.932,1.242l1.863,0.373c0.795,0.148,1.517,0.273,1.517,0.944
	C128.062,36.468,127.439,36.865,126.222,36.865L126.222,36.865z M112.034,29.883c1.614,0,2.708,1.393,2.708,3.454
	c0,2.062-1.094,3.479-2.708,3.479c-1.764,0-2.683-1.316-2.683-3.479C109.352,31.226,110.344,29.883,112.034,29.883L112.034,29.883z
	 M111.164,39.55c1.641,0,2.907-0.746,3.479-1.392v1.093h3.628V22.354h-3.628v6.138c-0.597-0.721-1.74-1.367-3.454-1.367
	c-3.305,0-5.516,2.609-5.516,6.212C105.674,37.064,107.811,39.55,111.164,39.55L111.164,39.55z M91.981,64.1h3.653V52.271h-3.653
	V64.1L91.981,64.1z M91.981,50.756h3.653v-3.553h-3.653V50.756L91.981,50.756z M85.174,58.508c0,1.615-0.646,2.808-2.112,2.808
	c-1.789,0-1.814-1.267-1.814-3.08v-5.964H77.62v6.709c0,2.609,0.298,3.429,1.043,4.273c0.696,0.771,1.689,1.144,3.057,1.144
	c1.665,0,2.933-0.796,3.504-1.765V64.1h3.578V52.271h-3.628V58.508L85.174,58.508z M83.484,36.791c-1.664,0-2.584-1.268-2.584-3.454
	s0.895-3.479,2.584-3.479c1.69,0,2.609,1.268,2.609,3.479C86.094,35.499,85.148,36.791,83.484,36.791L83.484,36.791z M83.484,27.125
	c-3.727,0-6.262,2.262-6.262,6.262s2.535,6.163,6.262,6.163c3.728,0,6.287-2.163,6.287-6.163S87.212,27.125,83.484,27.125
	L83.484,27.125z"/>
<path fill="#FFFFFF" d="M54.486,4.688H37.273c0.024,0.198,0.061,0.394,0.061,0.599c0,0.204-0.036,0.399-0.061,0.598h17.213
	c-0.023-0.198-0.061-0.394-0.061-0.598C54.426,5.081,54.463,4.886,54.486,4.688z"/>
<path fill="#FFFFFF" d="M5.285,54.426c0.205,0,0.4,0.037,0.599,0.061V37.274c-0.198,0.023-0.394,0.06-0.599,0.06
	c-0.204,0-0.399-0.036-0.598-0.06v17.212C4.886,54.463,5.081,54.426,5.285,54.426z"/>
<path fill="#FFFFFF" d="M32.946,27.4V10.212c-0.198,0.022-0.394,0.06-0.598,0.06s-0.399-0.037-0.598-0.06V27.4
	c-0.905,0.108-1.736,0.458-2.426,0.985c-0.104,0.08-0.206,0.164-0.305,0.252c-0.066,0.061-0.133,0.122-0.196,0.186
	c-0.77,0.77-1.288,1.79-1.424,2.928H10.211c0.023,0.198,0.061,0.394,0.061,0.598c0,0.205-0.037,0.399-0.061,0.598H27.4
	c0.284,2.382,2.247,4.248,4.673,4.38c0.091,0.005,0.183,0.008,0.275,0.008c0.013,0,0.024,0,0.037,0
	c0.157-0.002,0.312-0.01,0.467-0.025c0.002,0,0.004,0,0.006,0c1.074-0.109,2.047-0.56,2.81-1.241
	c0.011-0.009,0.021-0.019,0.032-0.028c0.029-0.025,0.057-0.053,0.084-0.079c0.03-0.029,0.061-0.057,0.09-0.086
	c0.011-0.011,0.021-0.023,0.032-0.034c0.046-0.046,0.09-0.092,0.133-0.139c0.008-0.009,0.015-0.019,0.022-0.026
	c0.791-0.882,1.272-2.048,1.272-3.326C37.334,29.798,35.418,27.696,32.946,27.4z"/>
<path fill="#5298BD" d="M5.285,27.363c-2.753,0-4.985,2.232-4.985,4.985s2.232,4.985,4.985,4.985c2.754,0,4.986-2.232,4.986-4.985
	S8.039,27.363,5.285,27.363L5.285,27.363z"/>
<path fill="#5298BD" d="M59.411,0.3c-2.753,0-4.985,2.232-4.985,4.986c0,2.753,2.232,4.985,4.985,4.985
	c2.755,0,4.986-2.232,4.986-4.985C64.397,2.532,62.166,0.3,59.411,0.3L59.411,0.3z"/>
<path fill="#C95B40" d="M32.349,0.3c-2.753,0-4.984,2.232-4.984,4.986c0,2.753,2.231,4.985,4.984,4.985s4.985-2.232,4.985-4.985
	C37.334,2.532,35.102,0.3,32.349,0.3L32.349,0.3z"/>
<path fill="#C95B40" d="M5.285,54.426c-2.753,0-4.985,2.232-4.985,4.986c0,2.753,2.232,4.985,4.985,4.985
	c2.754,0,4.986-2.232,4.986-4.985C10.271,56.658,8.039,54.426,5.285,54.426L5.285,54.426z"/>
<rect id="_x3C_Slice_x3E__2_" fill="none" width="287" height="65"/>
</svg>
