<?xml version="1.0" encoding="utf-8"?>
<!-- Generator: Adobe Illustrator 15.0.1, SVG Export Plug-In  -->
<!DOCTYPE svg PUBLIC "-//W3C//DTD SVG 1.1//EN" "http://www.w3.org/Graphics/SVG/1.1/DTD/svg11.dtd" [
	<!ENTITY ns_flows "http://ns.adobe.com/Flows/1.0/">
]>
<svg version="1.1"
	 xmlns="http://www.w3.org/2000/svg" xmlns:xlink="http://www.w3.org/1999/xlink" xmlns:a="http://ns.adobe.com/AdobeSVGViewerExtensions/3.0/"
	 x="0px" y="0px" width="287px" height="65px" viewBox="0 0 287 65" overflow="visible" enable-background="new 0 0 287 65"
	 xml:space="preserve">
<defs>
</defs>
<path fill="#FFFFFF" d="M75.336,27.241c-1.147-1.098-2.635-1.806-4.294-1.806c-1.536,0-2.61,0.635-2.61,1.684
	c0,1.073,0.757,1.513,2.269,1.806l2.684,0.537c3.074,0.609,5.001,1.829,5.001,4.756c0,3.44-3.049,5.343-6.977,5.343
	c-3.83,0-6.465-2.049-7.489-3.463l2.562-2.196c1.024,1.365,2.731,2.585,5.025,2.585c1.927,0,3.049-0.755,3.049-1.975
	c0-1.147-0.976-1.465-2.488-1.732l-2.146-0.415c-3.024-0.585-5.318-1.684-5.318-4.928c0-2.976,2.757-5.051,6.393-5.051
	c2.926,0,5.269,1.099,6.684,2.611L75.336,27.241L75.336,27.241z"/>
<path fill="#FFFFFF" d="M91.987,36.39c-0.635,1.635-2.269,3.171-5.343,3.171c-3.659,0-6.147-2.122-6.147-6.05
	s2.488-6.147,6.147-6.147c3.22,0,4.879,1.732,5.465,3.61l-3.073,1.05c-0.343-1.27-1.147-1.977-2.392-1.977
	c-1.659,0-2.537,1.269-2.537,3.415c0,2.147,0.903,3.392,2.537,3.392c1.147,0,1.952-0.61,2.318-1.708L91.987,36.39L91.987,36.39z"/>
<path fill="#FFFFFF" d="M104.771,39.268h-3.562v-5.854c0-1.78-0.073-3.024-1.83-3.024c-1.488,0-2.122,1.171-2.122,2.756v6.123
	h-3.562V22.68h3.562v6.342c0.561-0.901,1.78-1.658,3.439-1.658c1.342,0,2.367,0.366,3.05,1.122c0.731,0.829,1.024,1.634,1.024,4.196
	V39.268L104.771,39.268z"/>
<path fill="#FFFFFF" d="M116.141,34.779c-0.244-1.17-0.536-2.708-0.78-3.951h-0.024c-0.269,1.171-0.513,2.731-0.805,4l-0.977,4.439
	h-4.439l-2.928-11.611h3.659l0.928,5.025c0.219,1.195,0.414,2.366,0.658,3.562h0.024c0.268-1.146,0.487-2.221,0.828-3.635
	l1.221-4.952h3.806l1.244,5c0.391,1.538,0.536,2.392,0.806,3.587h0.024c0.244-1.171,0.39-1.977,0.707-3.659l0.951-4.928h3.513
	l-3.073,11.611h-4.392L116.141,34.779L116.141,34.779z"/>
<path fill="#FFFFFF" d="M128.706,32.096h4.854c-0.073-1.342-0.928-2.269-2.366-2.269C129.804,29.827,128.755,30.876,128.706,32.096
	L128.706,32.096z M136.854,36.804c-0.684,0.977-2.367,2.757-5.562,2.757c-3.416,0-6.025-2.244-6.025-6.147
	c0-3.635,2.487-6.05,5.952-6.05c3.83,0,5.781,2.756,5.781,6.294c0,0.244,0,0.513-0.023,0.731h-8.271
	c0.122,1.269,1.049,2.367,2.806,2.367c1.561,0,2.487-0.928,2.878-1.61L136.854,36.804L136.854,36.804z"/>
<path fill="#FFFFFF" d="M143.101,39.268h-3.587V27.656h3.587V39.268L143.101,39.268z M143.101,26.168h-3.587V22.68h3.587V26.168
	L143.101,26.168z"/>
<polygon fill="#FFFFFF" points="155.908,27.656 155.908,30.192 150.443,36.316 156.152,36.316 156.152,39.268 145.687,39.268 
	145.687,36.756 151.272,30.607 145.931,30.607 145.931,27.656 155.908,27.656 "/>
<path fill="#FFFFFF" d="M161.325,32.096h4.854c-0.073-1.342-0.928-2.269-2.367-2.269C162.423,29.827,161.374,30.876,161.325,32.096
	L161.325,32.096z M169.473,36.804c-0.683,0.977-2.366,2.757-5.562,2.757c-3.416,0-6.026-2.244-6.026-6.147
	c0-3.635,2.488-6.05,5.953-6.05c3.83,0,5.781,2.756,5.781,6.294c0,0.244,0,0.513-0.024,0.731h-8.27
	c0.122,1.269,1.05,2.367,2.805,2.367c1.562,0,2.488-0.928,2.879-1.61L169.473,36.804L169.473,36.804z"/>
<path fill="#FFFFFF" d="M175.647,27.656v1.586c0.316-0.879,1.633-1.854,3.268-1.854c0.146,0,0.27,0,0.414,0.024v3.416
	c-0.389-0.099-0.828-0.147-1.145-0.147c-1.367,0-2.051,0.659-2.318,1.635c-0.123,0.439-0.172,0.976-0.172,1.562v5.391h-3.561V27.656
	H175.647L175.647,27.656z"/>
<path fill="#FFFFFF" d="M184.819,39.268h-3.586V27.656h3.586V39.268L184.819,39.268z M184.819,26.168h-3.586V22.68h3.586V26.168
	L184.819,26.168z"/>
<path fill="#FFFFFF" d="M195.504,31.193c-0.854-0.78-2-1.269-3.146-1.269c-0.805,0-1.512,0.268-1.512,0.854
	c0,0.609,0.535,0.78,1.73,1.024l1.83,0.391c1.879,0.39,3.586,1.146,3.586,3.366c0,2.708-2.365,4-5.123,4
	c-2.658,0-4.902-1.171-5.951-2.609l2.244-1.806c0.707,0.976,2.098,1.78,3.707,1.78c1.195,0,1.807-0.39,1.807-1.023
	c0-0.659-0.709-0.781-1.488-0.928l-1.83-0.366c-1.17-0.22-2.172-0.609-2.879-1.22c-0.635-0.536-1-1.293-1-2.269
	c0-2.757,2.658-3.757,4.953-3.757c2.17,0,3.902,0.805,5.072,1.928L195.504,31.193L195.504,31.193z"/>
<path fill="#FFFFFF" d="M211.045,36.39c-0.635,1.635-2.268,3.171-5.342,3.171c-3.658,0-6.148-2.122-6.148-6.05
	s2.49-6.147,6.148-6.147c3.219,0,4.879,1.732,5.465,3.61l-3.074,1.05c-0.342-1.27-1.146-1.977-2.391-1.977
	c-1.66,0-2.537,1.269-2.537,3.415c0,2.147,0.902,3.392,2.537,3.392c1.146,0,1.951-0.61,2.318-1.708L211.045,36.39L211.045,36.39z"/>
<path fill="#FFFFFF" d="M223.807,39.268h-3.562v-5.854c0-1.78-0.074-3.024-1.83-3.024c-1.488,0-2.123,1.171-2.123,2.756v6.123
	h-3.561V22.68h3.561v6.342c0.562-0.901,1.781-1.658,3.439-1.658c1.344,0,2.367,0.366,3.051,1.122
	c0.73,0.829,1.025,1.634,1.025,4.196V39.268L223.807,39.268z"/>
<path fill="#FFFFFF" d="M229.709,32.096h4.855c-0.072-1.342-0.928-2.269-2.365-2.269C230.809,29.827,229.76,30.876,229.709,32.096
	L229.709,32.096z M237.86,36.804c-0.684,0.977-2.367,2.757-5.562,2.757c-3.418,0-6.027-2.244-6.027-6.147
	c0-3.635,2.49-6.05,5.953-6.05c3.83,0,5.781,2.756,5.781,6.294c0,0.244,0,0.513-0.023,0.731h-8.271
	c0.123,1.269,1.051,2.367,2.807,2.367c1.561,0,2.488-0.928,2.879-1.61L237.86,36.804L237.86,36.804z"/>
<path fill="#FFFFFF" d="M244.03,27.656v1.586c0.318-0.879,1.635-1.854,3.27-1.854c0.148,0,0.27,0,0.416,0.024v3.416
	c-0.391-0.099-0.83-0.147-1.146-0.147c-1.367,0-2.051,0.659-2.316,1.635c-0.123,0.439-0.172,0.976-0.172,1.562v5.391h-3.562V27.656
	H244.03L244.03,27.656z"/>
<path fill="#FFFFFF" d="M73.397,54.005c1.316,2.172,2.438,4.245,2.438,4.245h0.024c0,0-0.146-3.27-0.146-5.196v-5.537h3.636v16.588
	h-3.709l-3.928-6.392c-0.927-1.536-2.512-4.464-2.512-4.464h-0.025c0,0,0.171,2.756,0.171,5.415v5.44h-3.659V47.517h3.732
	L73.397,54.005L73.397,54.005z"/>
<path fill="#FFFFFF" d="M89.255,58.836c-0.268,0.097-0.487,0.219-1.732,0.463c-1.146,0.22-2,0.415-2,1.415
	c0,0.951,0.708,1.366,1.732,1.366c1.171,0,2-0.536,2-1.756V58.836L89.255,58.836z M92.572,61.201c0,0.732,0.099,0.977,0.61,0.977
	h0.171v2.049c-0.536,0.098-1.073,0.146-1.658,0.146c-1.025,0-1.977-0.194-2.221-1.048h-0.023c-0.537,0.586-1.392,1.073-3.27,1.073
	c-2.562,0-4.196-1.317-4.196-3.732c0-2.22,1.684-3.099,4.147-3.488l2.415-0.39c0.634-0.099,0.732-0.172,0.732-0.537v-0.195
	c0-0.878-0.488-1.366-1.708-1.366c-1.245,0-1.928,0.512-1.928,1.683l-3.293-0.023c-0.049-2.659,2.099-4.099,5.367-4.099
	c2.977,0,4.854,0.927,4.854,3.562V61.201L92.572,61.201z"/>
<path fill="#FFFFFF" d="M102.601,64.153c-0.487,0.098-1.293,0.195-2.146,0.195c-1.391,0-2.854-0.195-3.464-1
	c-0.439-0.586-0.488-1.22-0.488-2.392v-6.05h-2.244v-2.414h2.244v-3.952l3.562-0.708v4.66h2.537v2.414h-2.537v5.147
	c0,0.659,0.073,0.976,0.292,1.196c0.244,0.268,0.684,0.365,1.343,0.365c0.415,0,0.731-0.024,0.902-0.049V64.153L102.601,64.153z"/>
<path fill="#FFFFFF" d="M108.529,64.104h-3.586V52.493h3.586V64.104L108.529,64.104z M108.529,51.004h-3.586v-3.487h3.586V51.004
	L108.529,51.004z"/>
<path fill="#FFFFFF" d="M117.215,61.689c1.634,0,2.561-1.269,2.561-3.392c0-2.171-0.902-3.414-2.561-3.414
	c-1.66,0-2.537,1.268-2.537,3.414C114.678,60.445,115.58,61.689,117.215,61.689L117.215,61.689z M117.215,52.2
	c3.658,0,6.172,2.22,6.172,6.147s-2.514,6.05-6.172,6.05c-3.659,0-6.147-2.122-6.147-6.05S113.556,52.2,117.215,52.2L117.215,52.2z"
	/>
<path fill="#FFFFFF" d="M137.024,64.104h-3.562V58.25c0-1.78-0.073-3.024-1.83-3.024c-1.488,0-2.122,1.171-2.122,2.756v6.123h-3.562
	V52.493h3.513v1.439c0.562-0.952,1.83-1.732,3.489-1.732c1.341,0,2.366,0.366,3.049,1.122c0.731,0.829,1.024,1.634,1.024,4.195
	V64.104L137.024,64.104z"/>
<path fill="#FFFFFF" d="M146.735,58.836c-0.269,0.097-0.488,0.219-1.732,0.463c-1.147,0.22-2.001,0.415-2.001,1.415
	c0,0.951,0.708,1.366,1.732,1.366c1.171,0,2.001-0.536,2.001-1.756V58.836L146.735,58.836z M150.053,61.201
	c0,0.732,0.098,0.977,0.609,0.977h0.172v2.049c-0.537,0.098-1.074,0.146-1.66,0.146c-1.023,0-1.976-0.194-2.22-1.048h-0.023
	c-0.538,0.586-1.391,1.073-3.27,1.073c-2.562,0-4.196-1.317-4.196-3.732c0-2.22,1.684-3.099,4.147-3.488l2.415-0.39
	c0.635-0.099,0.731-0.172,0.731-0.537v-0.195c0-0.878-0.488-1.366-1.707-1.366c-1.244,0-1.928,0.512-1.928,1.683l-3.293-0.023
	c-0.049-2.659,2.098-4.099,5.367-4.099c2.977,0,4.854,0.927,4.854,3.562V61.201L150.053,61.201z"/>
<polygon fill="#FFFFFF" points="156.934,64.104 153.371,64.104 153.371,47.517 156.934,47.517 156.934,64.104 "/>
<path fill="#FFFFFF" d="M167.082,54.907h-2.635v9.197h-3.562v-9.197h-1.928v-2.414h1.928v-1.269c0-1.221,0.268-2.074,0.707-2.684
	c0.659-0.902,1.903-1.171,3.342-1.171c0.879,0,1.636,0.073,2.147,0.146V50.2c-0.22-0.024-0.586-0.049-0.977-0.049
	c-0.609,0-1.023,0.073-1.316,0.316c-0.22,0.195-0.342,0.414-0.342,1.049v0.977h2.635V54.907L167.082,54.907z"/>
<path fill="#FFFFFF" d="M173.913,61.689c1.635,0,2.562-1.269,2.562-3.392c0-2.171-0.902-3.414-2.562-3.414
	c-1.658,0-2.537,1.268-2.537,3.414C171.375,60.445,172.278,61.689,173.913,61.689L173.913,61.689z M173.913,52.2
	c3.66,0,6.172,2.22,6.172,6.147s-2.512,6.05-6.172,6.05c-3.658,0-6.147-2.122-6.147-6.05S170.254,52.2,173.913,52.2L173.913,52.2z"
	/>
<path fill="#FFFFFF" d="M193.723,64.104h-3.561V58.25c0-1.78-0.074-3.024-1.83-3.024c-1.488,0-2.123,1.171-2.123,2.756v6.123h-3.561
	V52.493h3.512v1.439c0.562-0.952,1.83-1.732,3.488-1.732c1.342,0,2.367,0.366,3.051,1.122c0.73,0.829,1.023,1.634,1.023,4.195
	V64.104L193.723,64.104z"/>
<path fill="#FFFFFF" d="M202.434,54.907c-1.66,0-2.635,1.318-2.635,3.391c0,2.123,0.902,3.416,2.635,3.416
	c1.586,0,2.658-1.39,2.658-3.416C205.092,56.274,204.02,54.907,202.434,54.907L202.434,54.907z M204.995,53.542v-6.025h3.562v16.588
	h-3.562v-1.072c-0.561,0.634-1.805,1.365-3.414,1.365c-3.295,0-5.393-2.439-5.393-6.1c0-3.536,2.172-6.098,5.416-6.098
	C203.288,52.2,204.411,52.834,204.995,53.542L204.995,53.542z"/>
<path fill="#FFFFFF" d="M219.243,56.03c-0.854-0.78-2-1.269-3.146-1.269c-0.805,0-1.512,0.268-1.512,0.854
	c0,0.609,0.535,0.78,1.732,1.023l1.828,0.391c1.879,0.391,3.586,1.146,3.586,3.366c0,2.708-2.365,4.001-5.123,4.001
	c-2.658,0-4.902-1.171-5.953-2.61l2.246-1.806c0.707,0.976,2.098,1.78,3.707,1.78c1.197,0,1.807-0.389,1.807-1.023
	c0-0.658-0.709-0.78-1.488-0.927l-1.83-0.366c-1.172-0.22-2.172-0.609-2.879-1.22c-0.635-0.537-1-1.293-1-2.27
	c0-2.756,2.658-3.756,4.951-3.756c2.172,0,3.904,0.805,5.076,1.928L219.243,56.03L219.243,56.03z"/>
<path fill="#FFFFFF" d="M54.486,4.688H37.273c0.024,0.198,0.061,0.394,0.061,0.599c0,0.204-0.036,0.399-0.061,0.598h17.213
	c-0.023-0.198-0.061-0.394-0.061-0.598C54.426,5.081,54.463,4.886,54.486,4.688z"/>
<path fill="#FFFFFF" d="M5.285,54.426c0.205,0,0.4,0.037,0.599,0.061V37.274c-0.198,0.023-0.394,0.06-0.599,0.06
	c-0.204,0-0.399-0.036-0.598-0.06v17.212C4.886,54.463,5.081,54.426,5.285,54.426z"/>
<path fill="#FFFFFF" d="M32.946,27.4V10.212c-0.198,0.022-0.394,0.06-0.598,0.06s-0.399-0.037-0.598-0.06V27.4
	c-0.905,0.108-1.736,0.458-2.426,0.985c-0.104,0.08-0.206,0.164-0.305,0.252c-0.066,0.061-0.133,0.122-0.196,0.186
	c-0.77,0.77-1.288,1.79-1.424,2.928H10.211c0.023,0.198,0.061,0.394,0.061,0.598c0,0.205-0.037,0.399-0.061,0.598H27.4
	c0.284,2.382,2.247,4.248,4.673,4.38c0.091,0.005,0.183,0.008,0.275,0.008c0.013,0,0.024,0,0.037,0
	c0.157-0.002,0.312-0.01,0.467-0.025c0.002,0,0.004,0,0.006,0c1.074-0.109,2.047-0.56,2.81-1.241
	c0.011-0.009,0.021-0.019,0.032-0.028c0.029-0.025,0.057-0.053,0.084-0.079c0.03-0.029,0.061-0.057,0.09-0.086
	c0.011-0.011,0.021-0.023,0.032-0.034c0.046-0.046,0.09-0.092,0.133-0.139c0.008-0.009,0.015-0.019,0.022-0.026
	c0.791-0.882,1.272-2.048,1.272-3.326C37.334,29.798,35.418,27.696,32.946,27.4z"/>
<path fill="#5298BD" d="M5.285,27.363c-2.753,0-4.985,2.232-4.985,4.985s2.232,4.985,4.985,4.985c2.754,0,4.986-2.232,4.986-4.985
	S8.039,27.363,5.285,27.363L5.285,27.363z"/>
<path fill="#5298BD" d="M59.411,0.3c-2.753,0-4.985,2.232-4.985,4.986c0,2.753,2.232,4.985,4.985,4.985
	c2.755,0,4.986-2.232,4.986-4.985C64.397,2.532,62.166,0.3,59.411,0.3L59.411,0.3z"/>
<path fill="#C95B40" d="M32.349,0.3c-2.753,0-4.984,2.232-4.984,4.986c0,2.753,2.231,4.985,4.984,4.985s4.985-2.232,4.985-4.985
	C37.334,2.532,35.102,0.3,32.349,0.3L32.349,0.3z"/>
<path fill="#C95B40" d="M5.285,54.426c-2.753,0-4.985,2.232-4.985,4.986c0,2.753,2.232,4.985,4.985,4.985
	c2.754,0,4.986-2.232,4.986-4.985C10.271,56.658,8.039,54.426,5.285,54.426L5.285,54.426z"/>
<rect id="_x3C_Slice_x3E__2_" fill="none" width="287" height="65"/>
</svg>
